<mxfile host="65bd71144e">
    <diagram id="TNGUx2WGcEDkIkU8fBkP" name="Page-1">
        <mxGraphModel dx="1204" dy="682" grid="1" gridSize="10" guides="1" tooltips="1" connect="1" arrows="1" fold="1" page="1" pageScale="1" pageWidth="827" pageHeight="1169" math="0" shadow="0">
            <root>
                <mxCell id="0"/>
                <mxCell id="1" parent="0"/>
                <mxCell id="edge2" style="html=1;exitX=1;exitY=0.25;entryX=0;entryY=0.25;jettySize=auto;endArrow=block;dashed=0;endFill=1;exitDx=0;exitDy=0;entryDx=0;entryDy=0;strokeColor=#3399FF;strokeWidth=4;startArrow=oval;startFill=1;curved=1;" parent="1" source="wIiNi6HQqVFI9dmjFtR3-94" target="wIiNi6HQqVFI9dmjFtR3-97" edge="1">
                    <mxGeometry relative="1" as="geometry">
                        <Array as="points">
                            <mxPoint x="777.75" y="720"/>
                        </Array>
                    </mxGeometry>
                </mxCell>
                <mxCell id="edge3" style="html=1;exitX=0.25;exitY=0;entryX=0.001;entryY=0.91;jettySize=auto;endArrow=block;dashed=0;endFill=1;exitDx=0;exitDy=0;entryDx=0;entryDy=0;strokeColor=#00CC00;strokeWidth=4;startArrow=oval;startFill=1;entryPerimeter=0;curved=1;" parent="1" source="wIiNi6HQqVFI9dmjFtR3-94" target="wIiNi6HQqVFI9dmjFtR3-117" edge="1">
                    <mxGeometry relative="1" as="geometry">
                        <Array as="points">
                            <mxPoint x="530" y="440"/>
                        </Array>
                    </mxGeometry>
                </mxCell>
                <mxCell id="edge4" style="html=1;exitX=1;exitY=0.75;entryX=0.25;entryY=0;jettySize=auto;endArrow=block;dashed=0;endFill=1;exitDx=0;exitDy=0;entryDx=0;entryDy=0;strokeColor=#FF8000;strokeWidth=4;startArrow=oval;startFill=1;curved=1;" parent="1" source="wIiNi6HQqVFI9dmjFtR3-94" target="wIiNi6HQqVFI9dmjFtR3-85" edge="1">
                    <mxGeometry relative="1" as="geometry">
                        <Array as="points">
                            <mxPoint x="702.75" y="680"/>
                        </Array>
                    </mxGeometry>
                </mxCell>
                <mxCell id="edge6" style="rounded=1;html=1;exitX=0.5;exitY=1;entryX=0.75;entryY=0;jettySize=auto;endArrow=block;dashed=0;endFill=1;entryDx=0;entryDy=0;exitDx=0;exitDy=0;strokeColor=#3399FF;strokeWidth=4;startArrow=oval;startFill=1;curved=1;" parent="1" source="wIiNi6HQqVFI9dmjFtR3-154" target="wIiNi6HQqVFI9dmjFtR3-97" edge="1">
                    <mxGeometry relative="1" as="geometry">
                        <Array as="points"/>
                        <mxPoint x="1009.74" y="626" as="sourcePoint"/>
                    </mxGeometry>
                </mxCell>
                <mxCell id="edge7" style="rounded=1;html=1;exitX=0;exitY=0.75;entryX=0.75;entryY=0;jettySize=auto;endArrow=block;dashed=0;endFill=1;entryDx=0;entryDy=0;exitDx=0;exitDy=0;strokeColor=#FF8000;strokeWidth=4;startArrow=oval;startFill=1;curved=1;" parent="1" source="wIiNi6HQqVFI9dmjFtR3-154" target="wIiNi6HQqVFI9dmjFtR3-85" edge="1">
                    <mxGeometry relative="1" as="geometry">
                        <Array as="points">
                            <mxPoint x="817.75" y="660"/>
                        </Array>
                        <mxPoint x="1009.74" y="626" as="sourcePoint"/>
                    </mxGeometry>
                </mxCell>
                <mxCell id="edge5" style="html=1;exitX=0.25;exitY=0;jettySize=auto;endArrow=block;dashed=0;endFill=1;exitDx=0;exitDy=0;entryX=0.75;entryY=1;entryDx=0;entryDy=0;strokeColor=#006600;strokeWidth=4;startArrow=oval;startFill=1;curved=1;" parent="1" source="wIiNi6HQqVFI9dmjFtR3-154" target="wIiNi6HQqVFI9dmjFtR3-124" edge="1">
                    <mxGeometry relative="1" as="geometry">
                        <mxPoint x="1009.74" y="590" as="sourcePoint"/>
                        <Array as="points">
                            <mxPoint x="857.75" y="530"/>
                        </Array>
                    </mxGeometry>
                </mxCell>
                <mxCell id="edge8" style="html=1;exitX=1;exitY=0.5;entryX=0;entryY=0.25;jettySize=auto;endArrow=block;dashed=0;endFill=1;exitDx=0;exitDy=0;entryDx=0;entryDy=0;strokeColor=#CC00CC;strokeWidth=4;startArrow=oval;startFill=1;curved=1;" parent="1" source="wIiNi6HQqVFI9dmjFtR3-154" target="wIiNi6HQqVFI9dmjFtR3-137" edge="1">
                    <mxGeometry relative="1" as="geometry">
                        <mxPoint x="1071.7300000000016" y="608" as="sourcePoint"/>
                        <Array as="points"/>
                    </mxGeometry>
                </mxCell>
                <mxCell id="edge9" style="html=1;exitX=0.75;exitY=0;entryX=0.75;entryY=1;jettySize=auto;endArrow=block;dashed=0;endFill=1;entryDx=0;entryDy=0;exitDx=0;exitDy=0;strokeColor=#CC0066;strokeWidth=4;startArrow=oval;startFill=1;curved=1;" parent="1" source="wIiNi6HQqVFI9dmjFtR3-154" target="wIiNi6HQqVFI9dmjFtR3-149" edge="1">
                    <mxGeometry relative="1" as="geometry">
                        <mxPoint x="1033.54416" y="592.1600000000001" as="sourcePoint"/>
                        <Array as="points">
                            <mxPoint x="1135.75" y="560"/>
                        </Array>
                    </mxGeometry>
                </mxCell>
                <mxCell id="edge10" style="html=1;jettySize=auto;endArrow=block;dashed=0;endFill=1;entryX=0.75;entryY=0;entryDx=0;entryDy=0;strokeColor=#FFFF00;strokeWidth=4;startArrow=oval;startFill=1;exitX=0.25;exitY=0;exitDx=0;exitDy=0;curved=1;" parent="1" source="wIiNi6HQqVFI9dmjFtR3-153" target="wIiNi6HQqVFI9dmjFtR3-94" edge="1">
                    <mxGeometry relative="1" as="geometry">
                        <mxPoint x="747.75" y="580" as="sourcePoint"/>
                        <mxPoint x="557.75" y="564" as="targetPoint"/>
                        <Array as="points">
                            <mxPoint x="610" y="440"/>
                        </Array>
                    </mxGeometry>
                </mxCell>
                <mxCell id="edge12" style="html=1;exitX=0.75;exitY=1;entryX=0.25;entryY=0;jettySize=auto;endArrow=block;dashed=0;endFill=1;entryDx=0;entryDy=0;exitDx=0;exitDy=0;strokeColor=#3399FF;strokeWidth=4;startArrow=oval;startFill=1;curved=1;" parent="1" source="wIiNi6HQqVFI9dmjFtR3-153" target="wIiNi6HQqVFI9dmjFtR3-97" edge="1">
                    <mxGeometry relative="1" as="geometry">
                        <Array as="points">
                            <mxPoint x="857.75" y="680"/>
                        </Array>
                    </mxGeometry>
                </mxCell>
                <mxCell id="edge13" style="html=1;exitX=0.25;exitY=1;entryX=0.5;entryY=0;jettySize=auto;endArrow=block;dashed=0;endFill=1;entryDx=0;entryDy=0;exitDx=0;exitDy=0;strokeColor=#FF8000;strokeWidth=4;startArrow=oval;startFill=1;curved=1;" parent="1" source="wIiNi6HQqVFI9dmjFtR3-153" target="wIiNi6HQqVFI9dmjFtR3-85" edge="1">
                    <mxGeometry relative="1" as="geometry">
                        <Array as="points">
                            <mxPoint x="760" y="730"/>
                        </Array>
                    </mxGeometry>
                </mxCell>
                <mxCell id="edge11" style="html=1;exitX=0.5;exitY=0;entryX=0.5;entryY=1;jettySize=auto;endArrow=block;dashed=0;endFill=1;entryDx=0;entryDy=0;exitDx=0;exitDy=0;strokeColor=#006600;strokeWidth=4;startArrow=oval;startFill=1;curved=1;" parent="1" source="wIiNi6HQqVFI9dmjFtR3-153" target="wIiNi6HQqVFI9dmjFtR3-124" edge="1">
                    <mxGeometry relative="1" as="geometry">
                        <Array as="points">
                            <mxPoint x="847.75" y="520"/>
                        </Array>
                    </mxGeometry>
                </mxCell>
                <mxCell id="edge14" style="html=1;exitX=0.75;exitY=0;entryX=0;entryY=0.5;jettySize=auto;endArrow=block;dashed=0;endFill=1;exitDx=0;exitDy=0;entryDx=0;entryDy=0;strokeColor=#CC0066;strokeWidth=4;startArrow=oval;startFill=1;curved=1;" parent="1" source="wIiNi6HQqVFI9dmjFtR3-153" target="wIiNi6HQqVFI9dmjFtR3-149" edge="1">
                    <mxGeometry relative="1" as="geometry">
                        <Array as="points">
                            <mxPoint x="887.75" y="450"/>
                        </Array>
                    </mxGeometry>
                </mxCell>
                <mxCell id="edge15" style="html=1;exitX=0.5;exitY=0;jettySize=auto;endArrow=block;dashed=0;endFill=1;exitDx=0;exitDy=0;entryX=0.25;entryY=1;entryDx=0;entryDy=0;strokeColor=#CC0066;strokeWidth=4;startArrow=oval;startFill=1;curved=1;" parent="1" source="wIiNi6HQqVFI9dmjFtR3-155" target="wIiNi6HQqVFI9dmjFtR3-149" edge="1">
                    <mxGeometry relative="1" as="geometry">
                        <mxPoint x="914.3399999999999" y="346" as="sourcePoint"/>
                        <mxPoint x="1017.75" y="460" as="targetPoint"/>
                        <Array as="points"/>
                    </mxGeometry>
                </mxCell>
                <mxCell id="edge16" style="html=1;exitX=0;exitY=0.5;jettySize=auto;endArrow=block;dashed=0;endFill=1;exitDx=0;exitDy=0;entryX=0.804;entryY=-0.01;entryDx=0;entryDy=0;strokeColor=#FFFF00;strokeWidth=4;startArrow=oval;startFill=1;entryPerimeter=0;curved=1;" parent="1" source="wIiNi6HQqVFI9dmjFtR3-152" target="wIiNi6HQqVFI9dmjFtR3-88" edge="1">
                    <mxGeometry relative="1" as="geometry">
                        <mxPoint x="663.54" y="526" as="sourcePoint"/>
                        <mxPoint x="627.75" y="500" as="targetPoint"/>
                        <Array as="points">
                            <mxPoint x="560" y="450"/>
                        </Array>
                    </mxGeometry>
                </mxCell>
                <mxCell id="edge17" style="html=1;entryX=0.25;entryY=1;jettySize=auto;endArrow=block;dashed=0;endFill=1;entryDx=0;entryDy=0;exitX=1;exitY=0.25;exitDx=0;exitDy=0;strokeColor=#006600;strokeWidth=4;startArrow=oval;startFill=1;curved=1;" parent="1" source="wIiNi6HQqVFI9dmjFtR3-152" target="wIiNi6HQqVFI9dmjFtR3-124" edge="1">
                    <mxGeometry relative="1" as="geometry">
                        <mxPoint x="663.54" y="490" as="sourcePoint"/>
                        <Array as="points">
                            <mxPoint x="800" y="420"/>
                        </Array>
                    </mxGeometry>
                </mxCell>
                <mxCell id="wIiNi6HQqVFI9dmjFtR3-79" value="&lt;font style=&quot;font-size: 14px&quot;&gt;&lt;b&gt;Utils&lt;/b&gt;&lt;/font&gt;" style="shape=umlFrame;whiteSpace=wrap;html=1;fillColor=#FF8000;strokeWidth=4;strokeColor=#FF8000;swimlaneFillColor=none;container=1;" parent="1" vertex="1">
                    <mxGeometry x="600" y="820" width="206.5" height="120" as="geometry"/>
                </mxCell>
                <mxCell id="wIiNi6HQqVFI9dmjFtR3-85" value="«interface»&lt;br&gt;&lt;b&gt;utils.h&lt;br&gt;&lt;/b&gt;" style="html=1;rounded=0;shadow=0;comic=0;fontFamily=Helvetica;fontSize=14;strokeColor=#FF8000;strokeWidth=4;fillColor=#FF8000;" parent="wIiNi6HQqVFI9dmjFtR3-79" vertex="1">
                    <mxGeometry x="96.5" width="110" height="50" as="geometry"/>
                </mxCell>
                <mxCell id="wIiNi6HQqVFI9dmjFtR3-80" value="utils.c" style="swimlane;fontStyle=1;align=center;verticalAlign=top;childLayout=stackLayout;horizontal=1;startSize=26;horizontalStack=0;resizeParent=1;resizeParentMax=0;resizeLast=0;collapsible=1;marginBottom=0;rounded=0;shadow=0;comic=0;fontFamily=Helvetica;fontSize=14;strokeColor=#000000;strokeWidth=2;fillColor=#FF8000;html=1;" parent="wIiNi6HQqVFI9dmjFtR3-79" vertex="1" collapsed="1">
                    <mxGeometry x="116.5" y="82.75" width="70" height="26" as="geometry">
                        <mxRectangle x="20" y="77.5" width="200" height="124" as="alternateBounds"/>
                    </mxGeometry>
                </mxCell>
                <mxCell id="wIiNi6HQqVFI9dmjFtR3-81" value="&lt;span style=&quot;color: rgb(0 , 0 , 0)&quot;&gt;enum state&lt;/span&gt;" style="text;whiteSpace=wrap;html=1;fontSize=14;fontFamily=Tahoma;fontColor=#FFFFFF;verticalAlign=middle;spacing=2;spacingLeft=4;spacingRight=4;" parent="wIiNi6HQqVFI9dmjFtR3-80" vertex="1">
                    <mxGeometry y="26" width="70" height="30" as="geometry"/>
                </mxCell>
                <mxCell id="wIiNi6HQqVFI9dmjFtR3-82" value="" style="line;strokeWidth=1;fillColor=none;align=left;verticalAlign=middle;spacingTop=-1;spacingLeft=3;spacingRight=3;rotatable=0;labelPosition=right;points=[];portConstraint=eastwest;rounded=0;shadow=0;comic=0;fontFamily=Helvetica;fontSize=14;html=1;" parent="wIiNi6HQqVFI9dmjFtR3-80" vertex="1">
                    <mxGeometry y="56" width="70" height="8" as="geometry"/>
                </mxCell>
                <mxCell id="wIiNi6HQqVFI9dmjFtR3-83" value="&lt;span style=&quot;color: rgb(0 , 0 , 0)&quot;&gt;int modulo()&lt;/span&gt;" style="text;whiteSpace=wrap;html=1;fontSize=14;fontFamily=Tahoma;fontColor=#FFFFFF;verticalAlign=middle;spacing=2;spacingLeft=4;spacingRight=4;" parent="wIiNi6HQqVFI9dmjFtR3-80" vertex="1">
                    <mxGeometry y="64" width="70" height="30" as="geometry"/>
                </mxCell>
                <mxCell id="wIiNi6HQqVFI9dmjFtR3-84" value="&lt;span style=&quot;color: rgb(0 , 0 , 0) ; font-family: &amp;#34;tahoma&amp;#34;&quot;&gt;unsigned int chose_change()&lt;/span&gt;" style="text;whiteSpace=wrap;html=1;fontSize=14;fontFamily=Tahoma;fontColor=#FFFFFF;verticalAlign=middle;spacing=2;spacingLeft=4;spacingRight=4;" parent="wIiNi6HQqVFI9dmjFtR3-80" vertex="1">
                    <mxGeometry y="94" width="70" height="30" as="geometry"/>
                </mxCell>
                <mxCell id="wIiNi6HQqVFI9dmjFtR3-86" value="" style="endArrow=classic;html=1;fontFamily=Helvetica;fontSize=14;startSize=23;entryX=0.5;entryY=1;entryDx=0;entryDy=0;strokeWidth=4;strokeColor=#FF8000;curved=1;" parent="wIiNi6HQqVFI9dmjFtR3-79" source="wIiNi6HQqVFI9dmjFtR3-80" target="wIiNi6HQqVFI9dmjFtR3-85" edge="1">
                    <mxGeometry width="50" height="50" relative="1" as="geometry">
                        <mxPoint x="317.5" y="-3.5" as="sourcePoint"/>
                        <mxPoint x="287.5" y="-33.5" as="targetPoint"/>
                    </mxGeometry>
                </mxCell>
                <mxCell id="wIiNi6HQqVFI9dmjFtR3-88" value="&lt;font style=&quot;font-size: 14px&quot;&gt;&lt;b&gt;Utils_Test&lt;/b&gt;&lt;/font&gt;" style="shape=umlFrame;whiteSpace=wrap;html=1;fillColor=#FFFF00;strokeWidth=4;strokeColor=#FFFF00;swimlaneFillColor=none;container=1;width=90;height=30;" parent="1" vertex="1">
                    <mxGeometry x="300" y="503.44" width="286.5" height="276.13" as="geometry"/>
                </mxCell>
                <mxCell id="wIiNi6HQqVFI9dmjFtR3-89" value="utils_test.c" style="swimlane;fontStyle=1;align=center;verticalAlign=top;childLayout=stackLayout;horizontal=1;startSize=26;horizontalStack=0;resizeParent=1;resizeParentMax=0;resizeLast=0;collapsible=1;marginBottom=0;rounded=0;shadow=0;comic=0;fontFamily=Helvetica;fontSize=14;strokeColor=#000000;strokeWidth=2;fillColor=#FFFF00;html=1;" parent="wIiNi6HQqVFI9dmjFtR3-88" vertex="1">
                    <mxGeometry x="18.999999999999943" y="76.13" width="230" height="184" as="geometry"/>
                </mxCell>
                <mxCell id="wIiNi6HQqVFI9dmjFtR3-90" value="&lt;span style=&quot;color: rgb(0 , 0 , 0) ; font-family: &amp;#34;tahoma&amp;#34;&quot;&gt;struct position&lt;/span&gt;" style="text;whiteSpace=wrap;html=1;fontSize=14;fontFamily=Tahoma;fontColor=#FFFFFF;verticalAlign=middle;spacing=2;spacingLeft=4;spacingRight=4;" parent="wIiNi6HQqVFI9dmjFtR3-89" vertex="1">
                    <mxGeometry y="26" width="230" height="30" as="geometry"/>
                </mxCell>
                <mxCell id="wIiNi6HQqVFI9dmjFtR3-91" value="" style="line;strokeWidth=1;fillColor=none;align=left;verticalAlign=middle;spacingTop=-1;spacingLeft=3;spacingRight=3;rotatable=0;labelPosition=right;points=[];portConstraint=eastwest;rounded=0;shadow=0;comic=0;fontFamily=Helvetica;fontSize=14;html=1;" parent="wIiNi6HQqVFI9dmjFtR3-89" vertex="1">
                    <mxGeometry y="56" width="230" height="8" as="geometry"/>
                </mxCell>
                <mxCell id="wIiNi6HQqVFI9dmjFtR3-92" value="&lt;span style=&quot;color: rgb(0 , 0 , 0) ; font-family: &amp;#34;tahoma&amp;#34;&quot;&gt;void afficher_tableau()&lt;/span&gt;" style="text;whiteSpace=wrap;html=1;fontSize=14;fontFamily=Tahoma;fontColor=#FFFFFF;verticalAlign=middle;spacing=2;spacingLeft=4;spacingRight=4;" parent="wIiNi6HQqVFI9dmjFtR3-89" vertex="1">
                    <mxGeometry y="64" width="230" height="30" as="geometry"/>
                </mxCell>
                <mxCell id="wIiNi6HQqVFI9dmjFtR3-93" value="&lt;span style=&quot;color: rgb(0 , 0 , 0) ; font-family: &amp;#34;tahoma&amp;#34;&quot;&gt;int comparer_monde&lt;/span&gt;&lt;span style=&quot;color: rgb(0 , 0 , 0) ; font-family: &amp;#34;tahoma&amp;#34;&quot;&gt;()&lt;/span&gt;" style="text;whiteSpace=wrap;html=1;fontSize=14;fontFamily=Tahoma;fontColor=#FFFFFF;verticalAlign=middle;spacing=2;spacingLeft=4;spacingRight=4;" parent="wIiNi6HQqVFI9dmjFtR3-89" vertex="1">
                    <mxGeometry y="94" width="230" height="30" as="geometry"/>
                </mxCell>
                <mxCell id="wIiNi6HQqVFI9dmjFtR3-165" value="&lt;span style=&quot;color: rgb(0 , 0 , 0) ; font-family: &amp;#34;tahoma&amp;#34;&quot;&gt;void afficher_tableau_positions(&lt;/span&gt;&lt;span style=&quot;color: rgb(0 , 0 , 0) ; font-family: &amp;#34;tahoma&amp;#34;&quot;&gt;)&lt;/span&gt;" style="text;whiteSpace=wrap;html=1;fontSize=14;fontFamily=Tahoma;fontColor=#FFFFFF;verticalAlign=middle;spacing=2;spacingLeft=4;spacingRight=4;" parent="wIiNi6HQqVFI9dmjFtR3-89" vertex="1">
                    <mxGeometry y="124" width="230" height="30" as="geometry"/>
                </mxCell>
                <mxCell id="wIiNi6HQqVFI9dmjFtR3-164" value="&lt;span style=&quot;color: rgb(0 , 0 , 0) ; font-family: &amp;#34;tahoma&amp;#34;&quot;&gt;void print_moves_rule(&lt;/span&gt;&lt;span style=&quot;color: rgb(0 , 0 , 0) ; font-family: &amp;#34;tahoma&amp;#34;&quot;&gt;)&lt;/span&gt;" style="text;whiteSpace=wrap;html=1;fontSize=14;fontFamily=Tahoma;fontColor=#FFFFFF;verticalAlign=middle;spacing=2;spacingLeft=4;spacingRight=4;" parent="wIiNi6HQqVFI9dmjFtR3-89" vertex="1">
                    <mxGeometry y="154" width="230" height="30" as="geometry"/>
                </mxCell>
                <mxCell id="wIiNi6HQqVFI9dmjFtR3-94" value="«interface»&lt;br&gt;&lt;b&gt;utils_test.h&lt;br&gt;&lt;/b&gt;" style="html=1;rounded=0;shadow=0;comic=0;fontFamily=Helvetica;fontSize=14;strokeColor=#FFFF00;strokeWidth=4;fillColor=#FFFF00;" parent="wIiNi6HQqVFI9dmjFtR3-88" vertex="1">
                    <mxGeometry x="176.49999999999994" width="110" height="50" as="geometry"/>
                </mxCell>
                <mxCell id="wIiNi6HQqVFI9dmjFtR3-95" value="" style="endArrow=classic;html=1;fontFamily=Helvetica;fontSize=14;startSize=6;entryX=0.5;entryY=1;entryDx=0;entryDy=0;strokeWidth=4;strokeColor=#FFFF00;exitX=0.75;exitY=0;exitDx=0;exitDy=0;curved=1;startArrow=oval;startFill=1;" parent="wIiNi6HQqVFI9dmjFtR3-88" source="wIiNi6HQqVFI9dmjFtR3-89" target="wIiNi6HQqVFI9dmjFtR3-94" edge="1">
                    <mxGeometry width="50" height="50" relative="1" as="geometry">
                        <mxPoint x="397.5" y="-3.5" as="sourcePoint"/>
                        <mxPoint x="367.5" y="-33.5" as="targetPoint"/>
                    </mxGeometry>
                </mxCell>
                <mxCell id="wIiNi6HQqVFI9dmjFtR3-131" value="&lt;font style=&quot;font-size: 14px&quot; color=&quot;#ffffff&quot;&gt;&lt;b&gt;Conflict&lt;/b&gt;&lt;/font&gt;" style="shape=umlFrame;whiteSpace=wrap;html=1;fillColor=#CC00CC;strokeWidth=4;strokeColor=#CC00CC;swimlaneFillColor=none;shadow=0;treeMoving=0;container=1;" parent="1" vertex="1">
                    <mxGeometry x="1180" y="576.5" width="230" height="130" as="geometry">
                        <mxRectangle x="1170" y="420" width="80" height="20" as="alternateBounds"/>
                    </mxGeometry>
                </mxCell>
                <mxCell id="wIiNi6HQqVFI9dmjFtR3-137" value="&lt;font color=&quot;#ffffff&quot;&gt;«interface»&lt;br&gt;&lt;/font&gt;&lt;b&gt;&lt;font color=&quot;#ffffff&quot;&gt;conflict.h&lt;/font&gt;&lt;br&gt;&lt;/b&gt;" style="html=1;rounded=0;shadow=0;comic=0;fontFamily=Helvetica;fontSize=14;strokeColor=#CC00CC;strokeWidth=4;fillColor=#CC00CC;" parent="wIiNi6HQqVFI9dmjFtR3-131" vertex="1">
                    <mxGeometry y="80" width="110" height="50" as="geometry"/>
                </mxCell>
                <mxCell id="wIiNi6HQqVFI9dmjFtR3-132" value="&lt;font color=&quot;#ffffff&quot;&gt;conflict.c&lt;/font&gt;" style="swimlane;fontStyle=1;align=center;verticalAlign=top;childLayout=stackLayout;horizontal=1;startSize=26;horizontalStack=0;resizeParent=1;resizeParentMax=0;resizeLast=0;collapsible=1;marginBottom=0;rounded=0;shadow=0;comic=0;fontFamily=Helvetica;fontSize=14;strokeColor=#000000;strokeWidth=2;fillColor=#CC00CC;html=1;" parent="wIiNi6HQqVFI9dmjFtR3-131" vertex="1" collapsed="1">
                    <mxGeometry x="120" y="20.5" width="90" height="26" as="geometry">
                        <mxRectangle x="110" y="20" width="190" height="110" as="alternateBounds"/>
                    </mxGeometry>
                </mxCell>
                <mxCell id="wIiNi6HQqVFI9dmjFtR3-133" value="&lt;div&gt;&lt;font face=&quot;Tahoma&quot;&gt;struct conflict&amp;nbsp;&lt;/font&gt;&lt;/div&gt;" style="text;strokeColor=none;fillColor=none;align=left;verticalAlign=middle;spacingLeft=4;spacingRight=4;overflow=hidden;rotatable=0;points=[[0,0.5],[1,0.5]];portConstraint=eastwest;rounded=0;shadow=0;comic=0;fontFamily=Helvetica;fontSize=14;html=1;" parent="wIiNi6HQqVFI9dmjFtR3-132" vertex="1">
                    <mxGeometry y="26" width="90" height="24" as="geometry"/>
                </mxCell>
                <mxCell id="wIiNi6HQqVFI9dmjFtR3-134" value="" style="line;strokeWidth=1;fillColor=none;align=left;verticalAlign=middle;spacingTop=-1;spacingLeft=3;spacingRight=3;rotatable=0;labelPosition=right;points=[];portConstraint=eastwest;rounded=0;shadow=0;comic=0;fontFamily=Helvetica;fontSize=14;html=1;" parent="wIiNi6HQqVFI9dmjFtR3-132" vertex="1">
                    <mxGeometry y="50" width="90" height="8" as="geometry"/>
                </mxCell>
                <mxCell id="wIiNi6HQqVFI9dmjFtR3-135" value="&lt;div&gt;&lt;font face=&quot;Tahoma&quot;&gt;void construct_t_conflicts()&lt;/font&gt;&lt;/div&gt;" style="text;strokeColor=none;fillColor=none;align=left;verticalAlign=middle;spacingLeft=4;spacingRight=4;overflow=hidden;rotatable=0;points=[[0,0.5],[1,0.5]];portConstraint=eastwest;rounded=0;shadow=0;comic=0;fontFamily=Helvetica;fontSize=14;html=1;" parent="wIiNi6HQqVFI9dmjFtR3-132" vertex="1">
                    <mxGeometry y="58" width="90" height="24" as="geometry"/>
                </mxCell>
                <mxCell id="wIiNi6HQqVFI9dmjFtR3-136" value="&lt;div&gt;&lt;span&gt;&lt;font face=&quot;Tahoma&quot;&gt;int solve_conflict()&lt;/font&gt;&lt;/span&gt;&lt;br&gt;&lt;/div&gt;" style="text;strokeColor=none;fillColor=none;align=left;verticalAlign=middle;spacingLeft=4;spacingRight=4;overflow=hidden;rotatable=0;points=[[0,0.5],[1,0.5]];portConstraint=eastwest;rounded=0;shadow=0;comic=0;fontFamily=Helvetica;fontSize=14;html=1;" parent="wIiNi6HQqVFI9dmjFtR3-132" vertex="1">
                    <mxGeometry y="82" width="90" height="28" as="geometry"/>
                </mxCell>
                <mxCell id="wIiNi6HQqVFI9dmjFtR3-138" value="" style="endArrow=classic;html=1;fontFamily=Helvetica;fontSize=14;startSize=6;entryX=0.75;entryY=0;entryDx=0;entryDy=0;strokeWidth=4;strokeColor=#CC00CC;curved=1;startArrow=oval;startFill=1;" parent="wIiNi6HQqVFI9dmjFtR3-131" source="wIiNi6HQqVFI9dmjFtR3-132" target="wIiNi6HQqVFI9dmjFtR3-137" edge="1">
                    <mxGeometry width="50" height="50" relative="1" as="geometry">
                        <mxPoint x="225" y="259" as="sourcePoint"/>
                        <mxPoint x="195" y="229" as="targetPoint"/>
                    </mxGeometry>
                </mxCell>
                <mxCell id="wIiNi6HQqVFI9dmjFtR3-139" value="&lt;font color=&quot;#ffffff&quot; style=&quot;line-height: 1.2 ; font-size: 14px&quot;&gt;&lt;b&gt;Queue&lt;/b&gt;&lt;/font&gt;" style="shape=umlFrame;whiteSpace=wrap;html=1;fillColor=#CC0066;strokeWidth=4;strokeColor=#CC0066;swimlaneFillColor=none;container=1;" parent="1" vertex="1">
                    <mxGeometry x="1040" y="320" width="220" height="127" as="geometry">
                        <mxRectangle x="925" y="17" width="80" height="20" as="alternateBounds"/>
                    </mxGeometry>
                </mxCell>
                <mxCell id="wIiNi6HQqVFI9dmjFtR3-149" value="&lt;font color=&quot;#ffffff&quot;&gt;«interface»&lt;br&gt;&lt;/font&gt;&lt;b&gt;&lt;font color=&quot;#ffffff&quot;&gt;queue.h&lt;/font&gt;&lt;br&gt;&lt;/b&gt;" style="html=1;rounded=0;shadow=0;comic=0;fontFamily=Helvetica;fontSize=14;strokeColor=#CC0066;strokeWidth=4;fillColor=#CC0066;" parent="wIiNi6HQqVFI9dmjFtR3-139" vertex="1">
                    <mxGeometry y="77" width="110" height="50" as="geometry"/>
                </mxCell>
                <mxCell id="wIiNi6HQqVFI9dmjFtR3-140" value="&lt;font color=&quot;#ffffff&quot;&gt;queue.c&lt;/font&gt;" style="swimlane;fontStyle=1;align=center;verticalAlign=top;childLayout=stackLayout;horizontal=1;startSize=26;horizontalStack=0;resizeParent=1;resizeParentMax=0;resizeLast=0;collapsible=1;marginBottom=0;rounded=0;shadow=0;comic=0;fontFamily=Helvetica;fontSize=14;strokeColor=#000000;strokeWidth=2;fillColor=#CC0066;html=1;" parent="wIiNi6HQqVFI9dmjFtR3-139" vertex="1" collapsed="1">
                    <mxGeometry x="110" y="20" width="90" height="26" as="geometry">
                        <mxRectangle x="125" y="20" width="210" height="244" as="alternateBounds"/>
                    </mxGeometry>
                </mxCell>
                <mxCell id="wIiNi6HQqVFI9dmjFtR3-141" value="&lt;span style=&quot;font-family: &amp;#34;tahoma&amp;#34;&quot;&gt;struct change&amp;nbsp;&lt;/span&gt;" style="text;strokeColor=none;fillColor=none;align=left;verticalAlign=middle;spacingLeft=4;spacingRight=4;overflow=hidden;rotatable=0;points=[[0,0.5],[1,0.5]];portConstraint=eastwest;rounded=0;shadow=0;comic=0;fontFamily=Helvetica;fontSize=14;html=1;" parent="wIiNi6HQqVFI9dmjFtR3-140" vertex="1">
                    <mxGeometry y="26" width="90" height="30" as="geometry"/>
                </mxCell>
                <mxCell id="wIiNi6HQqVFI9dmjFtR3-142" value="&lt;span style=&quot;font-family: &amp;#34;tahoma&amp;#34;&quot;&gt;struct queue&lt;/span&gt;" style="text;strokeColor=none;fillColor=none;align=left;verticalAlign=middle;spacingLeft=4;spacingRight=4;overflow=hidden;rotatable=0;points=[[0,0.5],[1,0.5]];portConstraint=eastwest;rounded=0;shadow=0;comic=0;fontFamily=Helvetica;fontSize=14;html=1;" parent="wIiNi6HQqVFI9dmjFtR3-140" vertex="1">
                    <mxGeometry y="56" width="90" height="30" as="geometry"/>
                </mxCell>
                <mxCell id="wIiNi6HQqVFI9dmjFtR3-143" value="" style="line;strokeWidth=1;fillColor=none;align=left;verticalAlign=middle;spacingTop=-1;spacingLeft=3;spacingRight=3;rotatable=0;labelPosition=right;points=[];portConstraint=eastwest;rounded=0;shadow=0;comic=0;fontFamily=Helvetica;fontSize=14;html=1;" parent="wIiNi6HQqVFI9dmjFtR3-140" vertex="1">
                    <mxGeometry y="86" width="90" height="8" as="geometry"/>
                </mxCell>
                <mxCell id="wIiNi6HQqVFI9dmjFtR3-144" value="&lt;span style=&quot;font-family: &amp;#34;tahoma&amp;#34;&quot;&gt;struct change* change_create()&lt;/span&gt;" style="text;strokeColor=none;fillColor=none;align=left;verticalAlign=middle;spacingLeft=4;spacingRight=4;overflow=hidden;rotatable=0;points=[[0,0.5],[1,0.5]];portConstraint=eastwest;rounded=0;shadow=0;comic=0;fontFamily=Helvetica;fontSize=14;html=1;" parent="wIiNi6HQqVFI9dmjFtR3-140" vertex="1">
                    <mxGeometry y="94" width="90" height="30" as="geometry"/>
                </mxCell>
                <mxCell id="wIiNi6HQqVFI9dmjFtR3-145" value="&lt;div style=&quot;font-family: &amp;#34;tahoma&amp;#34;&quot;&gt;void queue_init();&lt;/div&gt;" style="text;strokeColor=none;fillColor=none;align=left;verticalAlign=middle;spacingLeft=4;spacingRight=4;overflow=hidden;rotatable=0;points=[[0,0.5],[1,0.5]];portConstraint=eastwest;rounded=0;shadow=0;comic=0;fontFamily=Helvetica;fontSize=14;html=1;" parent="wIiNi6HQqVFI9dmjFtR3-140" vertex="1">
                    <mxGeometry y="124" width="90" height="30" as="geometry"/>
                </mxCell>
                <mxCell id="wIiNi6HQqVFI9dmjFtR3-146" value="&lt;span style=&quot;font-family: &amp;#34;tahoma&amp;#34;&quot;&gt;int queue_is_not_empty()&lt;/span&gt;" style="text;strokeColor=none;fillColor=none;align=left;verticalAlign=middle;spacingLeft=4;spacingRight=4;overflow=hidden;rotatable=0;points=[[0,0.5],[1,0.5]];portConstraint=eastwest;rounded=0;shadow=0;comic=0;fontFamily=Helvetica;fontSize=14;html=1;" parent="wIiNi6HQqVFI9dmjFtR3-140" vertex="1">
                    <mxGeometry y="154" width="90" height="30" as="geometry"/>
                </mxCell>
                <mxCell id="wIiNi6HQqVFI9dmjFtR3-147" value="&lt;span style=&quot;font-family: &amp;#34;tahoma&amp;#34;&quot;&gt;void queue_append()&lt;/span&gt;" style="text;strokeColor=none;fillColor=none;align=left;verticalAlign=middle;spacingLeft=4;spacingRight=4;overflow=hidden;rotatable=0;points=[[0,0.5],[1,0.5]];portConstraint=eastwest;rounded=0;shadow=0;comic=0;fontFamily=Helvetica;fontSize=14;html=1;" parent="wIiNi6HQqVFI9dmjFtR3-140" vertex="1">
                    <mxGeometry y="184" width="90" height="30" as="geometry"/>
                </mxCell>
                <mxCell id="wIiNi6HQqVFI9dmjFtR3-148" value="&lt;span style=&quot;font-family: &amp;#34;tahoma&amp;#34;&quot;&gt;struct change* queue_pop()&lt;/span&gt;" style="text;strokeColor=none;fillColor=none;align=left;verticalAlign=middle;spacingLeft=4;spacingRight=4;overflow=hidden;rotatable=0;points=[[0,0.5],[1,0.5]];portConstraint=eastwest;rounded=0;shadow=0;comic=0;fontFamily=Helvetica;fontSize=14;html=1;" parent="wIiNi6HQqVFI9dmjFtR3-140" vertex="1">
                    <mxGeometry y="214" width="90" height="30" as="geometry"/>
                </mxCell>
                <mxCell id="wIiNi6HQqVFI9dmjFtR3-150" value="" style="endArrow=classic;html=1;fontFamily=Helvetica;fontSize=14;startSize=6;entryX=0.75;entryY=0;entryDx=0;entryDy=0;strokeWidth=4;strokeColor=#CC0066;curved=1;startArrow=oval;startFill=1;" parent="wIiNi6HQqVFI9dmjFtR3-139" source="wIiNi6HQqVFI9dmjFtR3-140" target="wIiNi6HQqVFI9dmjFtR3-149" edge="1">
                    <mxGeometry width="50" height="50" relative="1" as="geometry">
                        <mxPoint x="-6.5" y="-36" as="sourcePoint"/>
                        <mxPoint x="-36.5" y="-66" as="targetPoint"/>
                        <Array as="points">
                            <mxPoint x="120" y="50"/>
                        </Array>
                    </mxGeometry>
                </mxCell>
                <mxCell id="wIiNi6HQqVFI9dmjFtR3-152" value="&lt;font style=&quot;font-size: 18px&quot; face=&quot;Helvetica&quot;&gt;test_world.c&lt;/font&gt;" style="shape=process;whiteSpace=wrap;html=1;backgroundOutline=1;shadow=0;labelBackgroundColor=none;fontFamily=Tahoma;fontSize=14;fontColor=#FFFFFF;strokeColor=#000000;strokeWidth=2;fillColor=#FF0000;fontStyle=1;" parent="1" vertex="1">
                    <mxGeometry x="610" y="420" width="150" height="43" as="geometry"/>
                </mxCell>
                <mxCell id="wIiNi6HQqVFI9dmjFtR3-153" value="&lt;font style=&quot;font-size: 18px&quot; face=&quot;Helvetica&quot;&gt;test_rule.c&lt;/font&gt;" style="shape=process;whiteSpace=wrap;html=1;backgroundOutline=1;shadow=0;labelBackgroundColor=none;fontFamily=Tahoma;fontSize=14;fontColor=#FFFFFF;strokeColor=#000000;strokeWidth=2;fillColor=#FF0000;fontStyle=1;" parent="1" vertex="1">
                    <mxGeometry x="696.5" y="553.44" width="150" height="43" as="geometry"/>
                </mxCell>
                <mxCell id="wIiNi6HQqVFI9dmjFtR3-154" value="&lt;font style=&quot;font-size: 18px&quot; face=&quot;Helvetica&quot;&gt;test_conflict.c&lt;/font&gt;" style="shape=process;whiteSpace=wrap;html=1;backgroundOutline=1;shadow=0;labelBackgroundColor=none;fontFamily=Tahoma;fontSize=14;fontColor=#FFFFFF;strokeColor=#000000;strokeWidth=2;fillColor=#FF0000;fontStyle=1;" parent="1" vertex="1">
                    <mxGeometry x="907.75" y="650" width="172.25" height="43" as="geometry"/>
                </mxCell>
                <mxCell id="wIiNi6HQqVFI9dmjFtR3-155" value="&lt;font face=&quot;Helvetica&quot;&gt;&lt;span style=&quot;font-size: 18px&quot;&gt;test_queue.c&lt;/span&gt;&lt;/font&gt;" style="shape=process;whiteSpace=wrap;html=1;backgroundOutline=1;shadow=0;labelBackgroundColor=none;fontFamily=Tahoma;fontSize=14;fontColor=#FFFFFF;strokeColor=#000000;strokeWidth=2;fillColor=#FF0000;fontStyle=1;" parent="1" vertex="1">
                    <mxGeometry x="917.7500000000001" y="520" width="150" height="43" as="geometry"/>
                </mxCell>
                <mxCell id="wIiNi6HQqVFI9dmjFtR3-96" value="&lt;font style=&quot;font-size: 14px&quot; color=&quot;#ffffff&quot;&gt;&lt;b&gt;Rule&lt;/b&gt;&lt;/font&gt;" style="shape=umlFrame;whiteSpace=wrap;html=1;fillColor=#0000FF;strokeWidth=4;strokeColor=#0000FF;swimlaneFillColor=none;flipH=1;container=1;noLabel=0;snapToPoint=0;treeFolding=0;" parent="1" vertex="1">
                    <mxGeometry x="907.75" y="771.37" width="360" height="133.25" as="geometry"/>
                </mxCell>
                <mxCell id="wIiNi6HQqVFI9dmjFtR3-99" value="&lt;font color=&quot;#ffffff&quot;&gt;rule.c&lt;/font&gt;" style="swimlane;fontStyle=1;align=center;verticalAlign=top;childLayout=stackLayout;horizontal=1;startSize=26;horizontalStack=0;resizeParent=1;resizeParentMax=0;resizeLast=0;collapsible=1;marginBottom=0;rounded=0;shadow=0;comic=0;fontFamily=Helvetica;fontSize=14;strokeColor=#000000;strokeWidth=2;fillColor=#0000FF;html=1;" parent="wIiNi6HQqVFI9dmjFtR3-96" vertex="1" collapsed="1">
                    <mxGeometry x="100" y="91.88" width="70" height="26" as="geometry">
                        <mxRectangle x="40" y="90" width="220" height="402" as="alternateBounds"/>
                    </mxGeometry>
                </mxCell>
                <mxCell id="wIiNi6HQqVFI9dmjFtR3-100" value="&lt;div&gt;&lt;span style=&quot;font-family: &amp;#34;tahoma&amp;#34;&quot;&gt;struct next_state&lt;/span&gt;&lt;/div&gt;" style="text;strokeColor=none;fillColor=none;align=left;verticalAlign=middle;spacingLeft=4;spacingRight=4;overflow=hidden;rotatable=0;points=[[0,0.5],[1,0.5]];portConstraint=eastwest;rounded=0;shadow=0;comic=0;fontFamily=Helvetica;fontSize=14;html=1;" parent="wIiNi6HQqVFI9dmjFtR3-99" vertex="1">
                    <mxGeometry y="26" width="70" height="30" as="geometry"/>
                </mxCell>
                <mxCell id="wIiNi6HQqVFI9dmjFtR3-101" value="&lt;div&gt;&lt;span style=&quot;font-family: &amp;#34;tahoma&amp;#34;&quot;&gt;struct rule&lt;/span&gt;&lt;/div&gt;" style="text;strokeColor=none;fillColor=none;align=left;verticalAlign=middle;spacingLeft=4;spacingRight=4;overflow=hidden;rotatable=0;points=[[0,0.5],[1,0.5]];portConstraint=eastwest;rounded=0;shadow=0;comic=0;fontFamily=Helvetica;fontSize=14;html=1;" parent="wIiNi6HQqVFI9dmjFtR3-99" vertex="1">
                    <mxGeometry y="56" width="70" height="30" as="geometry"/>
                </mxCell>
                <mxCell id="wIiNi6HQqVFI9dmjFtR3-102" value="" style="line;strokeWidth=1;fillColor=none;align=left;verticalAlign=middle;spacingTop=-1;spacingLeft=3;spacingRight=3;rotatable=0;labelPosition=right;points=[];portConstraint=eastwest;rounded=0;shadow=0;comic=0;fontFamily=Helvetica;fontSize=14;html=1;" parent="wIiNi6HQqVFI9dmjFtR3-99" vertex="1">
                    <mxGeometry y="86" width="70" height="8" as="geometry"/>
                </mxCell>
                <mxCell id="wIiNi6HQqVFI9dmjFtR3-103" value="&lt;span style=&quot;font-family: &amp;#34;tahoma&amp;#34;&quot;&gt;void rules_init()&lt;/span&gt;" style="text;strokeColor=none;fillColor=none;align=left;verticalAlign=middle;spacingLeft=4;spacingRight=4;overflow=hidden;rotatable=0;points=[[0,0.5],[1,0.5]];portConstraint=eastwest;rounded=0;shadow=0;comic=0;fontFamily=Helvetica;fontSize=14;html=1;" parent="wIiNi6HQqVFI9dmjFtR3-99" vertex="1">
                    <mxGeometry y="94" width="70" height="30" as="geometry"/>
                </mxCell>
                <mxCell id="wIiNi6HQqVFI9dmjFtR3-104" value="&lt;div&gt;&lt;span style=&quot;font-family: &amp;#34;tahoma&amp;#34;&quot;&gt;unsigned int rules_count()&lt;/span&gt;&lt;/div&gt;" style="text;strokeColor=none;fillColor=none;align=left;verticalAlign=middle;spacingLeft=4;spacingRight=4;overflow=hidden;rotatable=0;points=[[0,0.5],[1,0.5]];portConstraint=eastwest;rounded=0;shadow=0;comic=0;fontFamily=Helvetica;fontSize=14;html=1;" parent="wIiNi6HQqVFI9dmjFtR3-99" vertex="1">
                    <mxGeometry y="124" width="70" height="30" as="geometry"/>
                </mxCell>
                <mxCell id="wIiNi6HQqVFI9dmjFtR3-105" value="&lt;div&gt;&lt;span style=&quot;font-family: &amp;#34;tahoma&amp;#34;&quot;&gt;struct rule* rule_get()&lt;/span&gt;&lt;/div&gt;" style="text;strokeColor=none;fillColor=none;align=left;verticalAlign=middle;spacingLeft=4;spacingRight=4;overflow=hidden;rotatable=0;points=[[0,0.5],[1,0.5]];portConstraint=eastwest;rounded=0;shadow=0;comic=0;fontFamily=Helvetica;fontSize=14;html=1;" parent="wIiNi6HQqVFI9dmjFtR3-99" vertex="1">
                    <mxGeometry y="154" width="70" height="30" as="geometry"/>
                </mxCell>
                <mxCell id="wIiNi6HQqVFI9dmjFtR3-106" value="&lt;span style=&quot;font-family: &amp;#34;tahoma&amp;#34;&quot;&gt;int rule_match()&lt;/span&gt;" style="text;strokeColor=none;fillColor=none;align=left;verticalAlign=middle;spacingLeft=4;spacingRight=4;overflow=hidden;rotatable=0;points=[[0,0.5],[1,0.5]];portConstraint=eastwest;rounded=0;shadow=0;comic=0;fontFamily=Helvetica;fontSize=14;html=1;" parent="wIiNi6HQqVFI9dmjFtR3-99" vertex="1">
                    <mxGeometry y="184" width="70" height="30" as="geometry"/>
                </mxCell>
                <mxCell id="wIiNi6HQqVFI9dmjFtR3-107" value="&lt;div&gt;&lt;span style=&quot;font-family: &amp;#34;tahoma&amp;#34;&quot;&gt;unsigned int rule_num_changes()&lt;/span&gt;&lt;/div&gt;" style="text;strokeColor=none;fillColor=none;align=left;verticalAlign=middle;spacingLeft=4;spacingRight=4;overflow=hidden;rotatable=0;points=[[0,0.5],[1,0.5]];portConstraint=eastwest;rounded=0;shadow=0;comic=0;fontFamily=Helvetica;fontSize=14;html=1;" parent="wIiNi6HQqVFI9dmjFtR3-99" vertex="1">
                    <mxGeometry y="214" width="70" height="30" as="geometry"/>
                </mxCell>
                <mxCell id="wIiNi6HQqVFI9dmjFtR3-108" value="&lt;div&gt;&lt;font face=&quot;Tahoma&quot;&gt;unsigned int rule_change_to()&lt;/font&gt;&lt;/div&gt;" style="text;strokeColor=none;fillColor=none;align=left;verticalAlign=middle;spacingLeft=4;spacingRight=4;overflow=hidden;rotatable=0;points=[[0,0.5],[1,0.5]];portConstraint=eastwest;rounded=0;shadow=0;comic=0;fontFamily=Helvetica;fontSize=14;html=1;" parent="wIiNi6HQqVFI9dmjFtR3-99" vertex="1">
                    <mxGeometry y="244" width="70" height="30" as="geometry"/>
                </mxCell>
                <mxCell id="wIiNi6HQqVFI9dmjFtR3-109" value="&lt;div&gt;&lt;font face=&quot;Tahoma&quot;&gt;int rule_change_dx()&lt;/font&gt;&lt;/div&gt;" style="text;strokeColor=none;fillColor=none;align=left;verticalAlign=middle;spacingLeft=4;spacingRight=4;overflow=hidden;rotatable=0;points=[[0,0.5],[1,0.5]];portConstraint=eastwest;rounded=0;shadow=0;comic=0;fontFamily=Helvetica;fontSize=14;html=1;" parent="wIiNi6HQqVFI9dmjFtR3-99" vertex="1">
                    <mxGeometry y="274" width="70" height="30" as="geometry"/>
                </mxCell>
                <mxCell id="wIiNi6HQqVFI9dmjFtR3-110" value="&lt;span style=&quot;font-family: &amp;#34;tahoma&amp;#34;&quot;&gt;int rule_change_dy()&lt;/span&gt;" style="text;strokeColor=none;fillColor=none;align=left;verticalAlign=middle;spacingLeft=4;spacingRight=4;overflow=hidden;rotatable=0;points=[[0,0.5],[1,0.5]];portConstraint=eastwest;rounded=0;shadow=0;comic=0;fontFamily=Helvetica;fontSize=14;html=1;" parent="wIiNi6HQqVFI9dmjFtR3-99" vertex="1">
                    <mxGeometry y="304" width="70" height="30" as="geometry"/>
                </mxCell>
                <mxCell id="wIiNi6HQqVFI9dmjFtR3-111" value="" style="line;strokeWidth=1;fillColor=none;align=left;verticalAlign=middle;spacingTop=-1;spacingLeft=3;spacingRight=3;rotatable=0;labelPosition=right;points=[];portConstraint=eastwest;rounded=0;shadow=0;comic=0;fontFamily=Helvetica;fontSize=14;html=1;" parent="wIiNi6HQqVFI9dmjFtR3-99" vertex="1">
                    <mxGeometry y="334" width="70" height="8" as="geometry"/>
                </mxCell>
                <mxCell id="wIiNi6HQqVFI9dmjFtR3-112" value="&lt;div&gt;&lt;font face=&quot;Tahoma&quot;&gt;void find_neighbors()&lt;/font&gt;&lt;/div&gt;" style="text;strokeColor=none;fillColor=none;align=left;verticalAlign=middle;spacingLeft=4;spacingRight=4;overflow=hidden;rotatable=0;points=[[0,0.5],[1,0.5]];portConstraint=eastwest;rounded=0;shadow=0;comic=0;fontFamily=Helvetica;fontSize=14;html=1;" parent="wIiNi6HQqVFI9dmjFtR3-99" vertex="1">
                    <mxGeometry y="342" width="70" height="30" as="geometry"/>
                </mxCell>
                <mxCell id="wIiNi6HQqVFI9dmjFtR3-113" value="&lt;span style=&quot;font-family: &amp;#34;tahoma&amp;#34;&quot;&gt;int compare_patterns()&lt;/span&gt;" style="text;strokeColor=none;fillColor=none;align=left;verticalAlign=middle;spacingLeft=4;spacingRight=4;overflow=hidden;rotatable=0;points=[[0,0.5],[1,0.5]];portConstraint=eastwest;rounded=0;shadow=0;comic=0;fontFamily=Helvetica;fontSize=14;html=1;" parent="wIiNi6HQqVFI9dmjFtR3-99" vertex="1">
                    <mxGeometry y="372" width="70" height="30" as="geometry"/>
                </mxCell>
                <mxCell id="wIiNi6HQqVFI9dmjFtR3-98" value="&lt;font color=&quot;#ffffff&quot;&gt;«interface»&lt;br&gt;&lt;/font&gt;&lt;b&gt;&lt;font color=&quot;#ffffff&quot;&gt;rule.h&lt;/font&gt;&lt;br&gt;&lt;/b&gt;" style="html=1;rounded=0;shadow=0;comic=0;fontFamily=Helvetica;fontSize=14;strokeColor=#0000CC;strokeWidth=4;fillColor=#0000CC;" parent="wIiNi6HQqVFI9dmjFtR3-96" vertex="1">
                    <mxGeometry x="160" y="-4.440892098500626e-15" width="110" height="50" as="geometry"/>
                </mxCell>
                <mxCell id="wIiNi6HQqVFI9dmjFtR3-115" value="" style="endArrow=classic;html=1;fontFamily=Helvetica;fontSize=14;startSize=6;entryX=0.75;entryY=1;entryDx=0;entryDy=0;strokeWidth=4;strokeColor=#3399FF;exitX=0.25;exitY=0;exitDx=0;exitDy=0;curved=1;startArrow=oval;startFill=1;" parent="wIiNi6HQqVFI9dmjFtR3-96" source="wIiNi6HQqVFI9dmjFtR3-99" target="wIiNi6HQqVFI9dmjFtR3-97" edge="1">
                    <mxGeometry width="50" height="50" relative="1" as="geometry">
                        <mxPoint x="541" y="-490" as="sourcePoint"/>
                        <mxPoint x="-316.0000000000001" y="-499" as="targetPoint"/>
                    </mxGeometry>
                </mxCell>
                <mxCell id="wIiNi6HQqVFI9dmjFtR3-116" value="" style="endArrow=classic;html=1;fontFamily=Helvetica;fontSize=14;startSize=6;entryX=0.25;entryY=1;entryDx=0;entryDy=0;strokeWidth=4;strokeColor=#0000CC;exitX=0.75;exitY=0;exitDx=0;exitDy=0;curved=1;startArrow=oval;startFill=1;" parent="wIiNi6HQqVFI9dmjFtR3-96" source="wIiNi6HQqVFI9dmjFtR3-99" target="wIiNi6HQqVFI9dmjFtR3-98" edge="1">
                    <mxGeometry width="50" height="50" relative="1" as="geometry">
                        <mxPoint x="-181.0000000000001" y="-529" as="sourcePoint"/>
                        <mxPoint x="-211.0000000000001" y="-559" as="targetPoint"/>
                    </mxGeometry>
                </mxCell>
                <mxCell id="wIiNi6HQqVFI9dmjFtR3-114" style="rounded=1;html=1;jettySize=auto;endArrow=block;dashed=0;endFill=1;strokeColor=#0000CC;strokeWidth=4;exitX=1;exitY=0.5;exitDx=0;exitDy=0;entryX=0;entryY=0.5;entryDx=0;entryDy=0;curved=1;startSize=6;startArrow=oval;startFill=1;" parent="wIiNi6HQqVFI9dmjFtR3-96" source="wIiNi6HQqVFI9dmjFtR3-97" target="wIiNi6HQqVFI9dmjFtR3-98" edge="1">
                    <mxGeometry relative="1" as="geometry">
                        <Array as="points"/>
                        <mxPoint x="170" y="25.5" as="targetPoint"/>
                        <mxPoint x="110" y="25.5" as="sourcePoint"/>
                    </mxGeometry>
                </mxCell>
                <mxCell id="wIiNi6HQqVFI9dmjFtR3-97" value="&lt;font color=&quot;#ffffff&quot;&gt;«interface»&lt;br&gt;&lt;/font&gt;&lt;b&gt;&lt;font color=&quot;#ffffff&quot;&gt;rule_ext.h&lt;/font&gt;&lt;br&gt;&lt;/b&gt;" style="html=1;rounded=0;shadow=0;comic=0;fontFamily=Helvetica;fontSize=14;strokeColor=#3399FF;strokeWidth=4;fillColor=#3399FF;" parent="wIiNi6HQqVFI9dmjFtR3-96" vertex="1">
                    <mxGeometry y="-4.440892098500626e-15" width="110" height="50" as="geometry"/>
                </mxCell>
                <mxCell id="wIiNi6HQqVFI9dmjFtR3-117" value="&lt;font style=&quot;font-size: 14px&quot; color=&quot;#ffffff&quot;&gt;&lt;b&gt;World&lt;/b&gt;&lt;/font&gt;&lt;div style=&quot;color: rgb(0 , 0 , 0) ; font-family: &amp;#34;helvetica&amp;#34; ; font-size: 14px ; font-style: normal ; font-weight: 400 ; letter-spacing: normal ; text-align: left ; text-indent: 0px ; text-transform: none ; word-spacing: 0px ; background-color: rgb(248 , 249 , 250)&quot;&gt;&lt;/div&gt;" style="shape=umlFrame;whiteSpace=wrap;html=1;fillColor=#009900;strokeWidth=4;strokeColor=#009900;swimlaneFillColor=none;overflow=visible;noLabel=0;fixDash=0;autosize=0;container=1;portConstraintRotation=0;" parent="1" vertex="1">
                    <mxGeometry x="627.75" y="240" width="280" height="138.5" as="geometry">
                        <mxRectangle x="250" y="492" width="70" height="20" as="alternateBounds"/>
                    </mxGeometry>
                </mxCell>
                <mxCell id="wIiNi6HQqVFI9dmjFtR3-124" value="&lt;font color=&quot;#ffffff&quot;&gt;«interface»&lt;br&gt;&lt;/font&gt;&lt;b&gt;&lt;font color=&quot;#ffffff&quot;&gt;world.h&lt;/font&gt;&lt;br&gt;&lt;/b&gt;" style="html=1;rounded=0;shadow=0;comic=0;fontFamily=Helvetica;fontSize=14;strokeColor=#006600;strokeWidth=4;fillColor=#006600;" parent="wIiNi6HQqVFI9dmjFtR3-117" vertex="1">
                    <mxGeometry x="170" y="88.5" width="110" height="50" as="geometry"/>
                </mxCell>
                <mxCell id="wIiNi6HQqVFI9dmjFtR3-125" value="«interface»&lt;br&gt;&lt;b&gt;world_ext.h&lt;br&gt;&lt;/b&gt;" style="html=1;rounded=0;shadow=0;comic=0;fontFamily=Helvetica;fontSize=14;strokeColor=#00CC00;strokeWidth=4;fillColor=#00CC00;" parent="wIiNi6HQqVFI9dmjFtR3-117" vertex="1">
                    <mxGeometry x="-1.1368683772161603e-13" y="88.5" width="110" height="50" as="geometry"/>
                </mxCell>
                <mxCell id="wIiNi6HQqVFI9dmjFtR3-128" style="rounded=1;html=1;exitX=1;exitY=0.5;jettySize=auto;endArrow=block;dashed=0;endFill=1;entryX=0;entryY=0.5;entryDx=0;entryDy=0;exitDx=0;exitDy=0;strokeWidth=4;strokeColor=#006600;curved=1;startArrow=oval;startFill=1;" parent="wIiNi6HQqVFI9dmjFtR3-117" source="wIiNi6HQqVFI9dmjFtR3-125" target="wIiNi6HQqVFI9dmjFtR3-124" edge="1">
                    <mxGeometry relative="1" as="geometry">
                        <Array as="points"/>
                        <mxPoint x="507.02" y="-212" as="targetPoint"/>
                    </mxGeometry>
                </mxCell>
                <mxCell id="wIiNi6HQqVFI9dmjFtR3-118" value="world.c" style="swimlane;fontStyle=1;align=center;verticalAlign=top;childLayout=stackLayout;horizontal=1;startSize=26;horizontalStack=0;resizeParent=1;resizeParentMax=0;resizeLast=0;collapsible=1;marginBottom=0;rounded=0;shadow=0;comic=0;fontFamily=Helvetica;fontSize=14;strokeColor=#000000;strokeWidth=2;fillColor=#009900;html=1;" parent="wIiNi6HQqVFI9dmjFtR3-117" vertex="1" collapsed="1">
                    <mxGeometry x="100" y="30" width="80" height="26" as="geometry">
                        <mxRectangle x="110" y="20" width="170" height="158" as="alternateBounds"/>
                    </mxGeometry>
                </mxCell>
                <mxCell id="wIiNi6HQqVFI9dmjFtR3-119" value="&lt;span style=&quot;color: rgb(0 , 0 , 0)&quot;&gt;enum state&lt;/span&gt;" style="text;whiteSpace=wrap;html=1;fontSize=14;fontFamily=Tahoma;fontColor=#FFFFFF;verticalAlign=middle;spacing=2;spacingLeft=4;spacingRight=4;" parent="wIiNi6HQqVFI9dmjFtR3-118" vertex="1">
                    <mxGeometry y="26" width="80" height="34" as="geometry"/>
                </mxCell>
                <mxCell id="wIiNi6HQqVFI9dmjFtR3-120" value="" style="line;strokeWidth=1;fillColor=none;align=left;verticalAlign=middle;spacingTop=-1;spacingLeft=3;spacingRight=3;rotatable=0;labelPosition=right;points=[];portConstraint=eastwest;rounded=0;shadow=0;comic=0;fontFamily=Helvetica;fontSize=14;html=1;" parent="wIiNi6HQqVFI9dmjFtR3-118" vertex="1">
                    <mxGeometry y="60" width="80" height="8" as="geometry"/>
                </mxCell>
                <mxCell id="wIiNi6HQqVFI9dmjFtR3-121" value="&lt;span style=&quot;color: rgb(0 , 0 , 0)&quot;&gt;struct world world_init()&lt;/span&gt;" style="text;whiteSpace=wrap;html=1;fontSize=14;fontFamily=Tahoma;fontColor=#FFFFFF;verticalAlign=middle;spacing=2;spacingLeft=4;spacingRight=4;" parent="wIiNi6HQqVFI9dmjFtR3-118" vertex="1">
                    <mxGeometry y="68" width="80" height="30" as="geometry"/>
                </mxCell>
                <mxCell id="wIiNi6HQqVFI9dmjFtR3-122" value="&lt;span style=&quot;color: rgb(0 , 0 , 0) ; font-family: &amp;#34;tahoma&amp;#34;&quot;&gt;void world_disp()&lt;/span&gt;" style="text;whiteSpace=wrap;html=1;fontSize=14;fontFamily=Tahoma;fontColor=#FFFFFF;verticalAlign=middle;spacing=2;spacingLeft=4;spacingRight=4;" parent="wIiNi6HQqVFI9dmjFtR3-118" vertex="1">
                    <mxGeometry y="98" width="80" height="30" as="geometry"/>
                </mxCell>
                <mxCell id="wIiNi6HQqVFI9dmjFtR3-123" value="&lt;span style=&quot;color: rgb(0 , 0 , 0) ; font-family: &amp;#34;tahoma&amp;#34;&quot;&gt;void world_apply_rule(&lt;/span&gt;&lt;span style=&quot;color: rgb(0 , 0 , 0) ; font-family: &amp;#34;tahoma&amp;#34;&quot;&gt;)&lt;/span&gt;" style="text;whiteSpace=wrap;html=1;fontSize=14;fontFamily=Tahoma;fontColor=#FFFFFF;verticalAlign=middle;spacing=2;spacingLeft=4;spacingRight=4;" parent="wIiNi6HQqVFI9dmjFtR3-118" vertex="1">
                    <mxGeometry y="128" width="80" height="30" as="geometry"/>
                </mxCell>
                <mxCell id="wIiNi6HQqVFI9dmjFtR3-126" value="" style="endArrow=classic;html=1;fontFamily=Helvetica;fontSize=14;startSize=6;entryX=0.5;entryY=0;entryDx=0;entryDy=0;strokeWidth=4;strokeColor=#006600;exitX=0.75;exitY=1;exitDx=0;exitDy=0;curved=1;startArrow=oval;startFill=1;" parent="wIiNi6HQqVFI9dmjFtR3-117" source="wIiNi6HQqVFI9dmjFtR3-118" target="wIiNi6HQqVFI9dmjFtR3-124" edge="1">
                    <mxGeometry width="50" height="50" relative="1" as="geometry">
                        <mxPoint x="207.5" y="158" as="sourcePoint"/>
                        <mxPoint x="405.01999999999987" y="118" as="targetPoint"/>
                    </mxGeometry>
                </mxCell>
                <mxCell id="wIiNi6HQqVFI9dmjFtR3-127" value="" style="endArrow=classic;html=1;fontFamily=Helvetica;fontSize=14;startSize=6;entryX=0.5;entryY=0;entryDx=0;entryDy=0;strokeWidth=4;strokeColor=#00CC00;exitX=0.25;exitY=1;exitDx=0;exitDy=0;curved=1;startArrow=oval;startFill=1;" parent="wIiNi6HQqVFI9dmjFtR3-117" source="wIiNi6HQqVFI9dmjFtR3-118" target="wIiNi6HQqVFI9dmjFtR3-125" edge="1">
                    <mxGeometry width="50" height="50" relative="1" as="geometry">
                        <mxPoint x="287.01999999999987" y="-2" as="sourcePoint"/>
                        <mxPoint x="300.01999999999987" y="-12" as="targetPoint"/>
                    </mxGeometry>
                </mxCell>
            </root>
        </mxGraphModel>
    </diagram>
</mxfile>